<?xml version="1.0" encoding="UTF-8" standalone="no"?>
<!-- Created with Inkscape (http://www.inkscape.org/) -->

<svg
   xmlns:dc="http://purl.org/dc/elements/1.1/"
   xmlns:cc="http://creativecommons.org/ns#"
   xmlns:rdf="http://www.w3.org/1999/02/22-rdf-syntax-ns#"
   xmlns:svg="http://www.w3.org/2000/svg"
   xmlns="http://www.w3.org/2000/svg"
   xmlns:sodipodi="http://sodipodi.sourceforge.net/DTD/sodipodi-0.dtd"
   xmlns:inkscape="http://www.inkscape.org/namespaces/inkscape"
   width="173.67973"
   height="202.51085"
   viewBox="0 0 45.952762 53.580997"
   version="1.1"
   id="svg8"
   inkscape:version="0.92.2 (5c3e80d, 2017-08-06)"
   sodipodi:docname="Cyrillic capital letter script A.svg">
  <defs
     id="defs2" />
  <sodipodi:namedview
     id="base"
     pagecolor="#ffffff"
     bordercolor="#666666"
     borderopacity="1.0"
     inkscape:pageopacity="0.0"
     inkscape:pageshadow="2"
     inkscape:zoom="1.979899"
     inkscape:cx="83.982716"
     inkscape:cy="98.804418"
     inkscape:document-units="mm"
     inkscape:current-layer="layer1"
     showgrid="false"
     units="px"
     fit-margin-top="0"
     fit-margin-left="0"
     fit-margin-right="0"
     fit-margin-bottom="0"
     inkscape:window-width="1366"
     inkscape:window-height="705"
     inkscape:window-x="-8"
     inkscape:window-y="-8"
     inkscape:window-maximized="1" />
  <metadata
     id="metadata5">
    <rdf:RDF>
      <cc:Work
         rdf:about="">
        <dc:format>image/svg+xml</dc:format>
        <dc:type
           rdf:resource="http://purl.org/dc/dcmitype/StillImage" />
        <dc:title></dc:title>
      </cc:Work>
    </rdf:RDF>
  </metadata>
  <g
     inkscape:label="Layer 1"
     inkscape:groupmode="layer"
     id="layer1"
     transform="translate(-83.612907,-110.70355)">
    <path
       sodipodi:nodetypes="cccccccccccccccsccccccccccccc"
       inkscape:connector-curvature="0"
       id="path162"
       d="m 102.00663,110.70355 -15.668306,36.91763 c -1.304149,2.73844 -2.218443,4.87077 -2.50631,6.05649 -0.579543,2.85601 -0.01058,5.39044 1.720815,7.57061 1.16459,1.46734 2.509661,2.40954 3.994609,2.81636 1.688958,0.48825 4.398785,0.16158 5.813601,-0.96117 0.831673,-0.66016 1.363027,-1.49331 1.591627,-2.51665 0.230011,-1.06077 0.01058,-2.0194 -0.656272,-2.8629 -0.839894,-1.05865 -2.322936,-1.42741 -4.459711,-1.1007 -2.105131,0.31503 -3.376224,0.17956 -3.839527,-0.40308 -0.274109,-0.34537 -0.423263,-0.7541 -0.44443,-1.26605 -0.02822,-0.50878 1.070963,-3.05806 2.681993,-6.5319 l 0.801017,-1.78286 h 19.399324 c 0.91016,1.98617 1.83525,3.95763 2.75953,5.90147 1.10067,2.57881 1.65365,4.62852 1.65365,6.17016 0,1.69686 -1.2669,2.53732 -3.80341,2.53732 l -1.04902,-0.0568 v 1.82414 h 19.56986 v -1.71047 c -2.02491,-0.11289 -3.49783,-0.7148 -4.408,-1.819 -0.44097,-0.51153 -1.18706,-1.94292 -2.20659,-4.29947 l -19.13061,-44.4831 z m -1.15757,12.62454 8.15457,19.73009 H 92.580832 Z"
       style="fill:#000000;fill-opacity:1;fill-rule:nonzero;stroke:none;stroke-width:0.35277772" />
  </g>
</svg>
